<?xml version="1.0" standalone="no"?>
<!DOCTYPE svg PUBLIC "-//W3C//DTD SVG 20010904//EN"
 "http://www.w3.org/TR/2001/REC-SVG-20010904/DTD/svg10.dtd">
<svg version="1.0" xmlns="http://www.w3.org/2000/svg"
 width="700.000000pt" height="700.000000pt" viewBox="0 0 700.000000 700.000000"
 preserveAspectRatio="xMidYMid meet">
<metadata>
Created by potrace 1.11, written by Peter Selinger 2001-2013
</metadata>
<g transform="translate(0.000000,700.000000) scale(0.100000,-0.100000)"
fill="#000000" stroke="none">
<path d="M1220 6862 c0 -3 55 -111 265 -517 141 -272 234 -453 345 -670 62
-121 114 -221 114 -222 1 -1 40 35 86 81 47 45 135 124 195 176 136 116 135
115 135 135 0 10 -84 214 -186 454 -102 240 -196 459 -207 486 -37 89 1 81
-394 81 -194 0 -353 -2 -353 -4z"/>
<path d="M3828 6445 c-2 -2 -22 -5 -44 -8 -23 -4 -57 -13 -75 -21 -37 -16 -71
-29 -79 -30 -3 -1 -44 -18 -90 -38 -47 -20 -143 -60 -215 -88 -247 -98 -463
-207 -675 -340 -771 -482 -1234 -1157 -1115 -1624 32 -124 120 -246 240 -331
60 -43 84 -54 86 -37 5 57 34 149 75 244 136 314 476 680 899 967 210 142 478
290 665 366 36 14 74 30 85 35 83 37 131 53 163 53 20 0 80 -2 132 -3 109 -3
110 -3 524 149 305 112 324 121 368 165 50 50 56 98 27 231 -14 67 -28 103
-58 148 -44 68 -92 82 -376 102 -95 7 -95 7 -255 40 -78 16 -153 25 -202 24
-42 -1 -78 -3 -80 -4z m147 -137 c2 -39 -19 -84 -50 -104 -42 -28 -116 -23
-159 10 -20 15 -33 32 -30 40 10 26 171 87 219 83 13 -1 19 -10 20 -29z"/>
<path d="M4555 5068 c-38 -4 -97 -12 -130 -18 -33 -5 -71 -12 -85 -14 -63 -10
-246 -60 -360 -97 -846 -279 -1613 -916 -1809 -1504 -40 -119 -50 -191 -46
-305 6 -145 36 -232 113 -330 35 -44 107 -110 121 -110 4 0 7 15 6 34 -3 56
27 186 62 266 140 323 415 633 793 893 440 302 926 494 1396 553 121 16 474 7
505 -12 3 -2 21 -6 40 -9 74 -13 203 -66 271 -112 56 -39 138 -123 153 -158 6
-16 11 -9 27 40 10 32 20 71 22 85 14 86 16 113 18 180 2 130 -17 199 -79 299
-66 104 -178 193 -310 246 -38 15 -77 29 -87 31 -10 2 -33 8 -50 14 -99 32
-399 47 -571 28z"/>
<path d="M2655 4954 c-109 -89 -258 -224 -293 -266 -10 -13 8 -56 114 -267
l127 -252 42 43 c65 67 183 170 255 222 36 27 67 49 68 51 3 3 -113 269 -212
487 l-21 47 -80 -65z"/>
<path d="M5057 4326 c-94 -76 -225 -147 -360 -197 -45 -16 -89 -32 -97 -36 -8
-3 -19 -7 -25 -9 -190 -49 -248 -63 -285 -69 -24 -4 -47 -8 -50 -10 -3 -2 -26
-6 -50 -9 -25 -4 -77 -11 -116 -17 -39 -5 -95 -12 -125 -14 -186 -14 -252 -17
-376 -18 -137 0 -138 -1 -193 -33 -102 -60 -98 -43 -40 -185 l51 -125 242 2
c225 1 423 8 507 19 19 2 64 7 100 10 124 11 271 32 435 60 209 37 516 129
646 195 97 48 203 122 226 156 20 31 11 51 -51 116 -87 90 -205 159 -329 191
l-58 15 -52 -42z"/>
<path d="M1983 4217 c-36 -57 -97 -217 -108 -284 -5 -32 -5 -33 82 -74 80 -38
252 -99 280 -99 6 0 49 48 94 108 46 59 101 126 123 150 21 23 37 44 35 46 -2
2 -56 18 -119 35 -175 47 -218 61 -302 97 -57 24 -79 30 -85 21z"/>
<path d="M3134 3732 c-118 -89 -214 -175 -214 -190 0 -5 26 -61 59 -123 32
-63 113 -222 181 -354 67 -132 123 -242 125 -243 2 -2 13 6 24 17 28 28 162
127 224 166 30 19 46 36 44 45 -7 27 -332 760 -337 760 -3 0 -51 -35 -106 -78z"/>
<path d="M4829 3476 c-2 -2 -33 -7 -69 -10 -36 -4 -85 -11 -109 -17 -24 -5
-56 -11 -70 -13 -71 -9 -262 -67 -406 -123 -85 -33 -323 -148 -392 -189 -17
-10 -61 -36 -96 -57 -83 -50 -263 -183 -352 -261 -316 -277 -524 -595 -566
-867 -31 -203 36 -386 180 -488 l26 -19 1 27 c5 157 112 392 268 587 246 307
595 562 1007 737 130 56 321 117 410 132 19 3 41 8 49 10 15 4 51 10 159 25
77 10 300 5 363 -10 151 -34 256 -87 335 -167 29 -29 54 -53 56 -53 6 0 27 84
34 135 8 50 7 172 -1 205 -11 47 -50 135 -78 177 -71 106 -229 194 -410 228
-35 7 -333 16 -339 11z"/>
<path d="M2440 2853 c-14 -47 -23 -106 -24 -153 l-1 -75 100 -52 c115 -60 216
-101 332 -136 l81 -25 58 81 c32 44 65 88 73 97 9 9 30 33 47 53 35 40 34 41
-33 53 -169 30 -437 129 -560 207 -24 15 -44 27 -46 27 -2 0 -14 -35 -27 -77z"/>
<path d="M5122 2874 c-112 -86 -397 -192 -592 -220 -19 -3 -60 -9 -90 -14 -30
-5 -84 -12 -120 -15 -36 -3 -87 -8 -115 -10 -27 -2 -87 -5 -132 -6 -46 -1 -83
-5 -83 -9 0 -4 -27 -24 -61 -45 -33 -20 -58 -42 -56 -49 3 -6 22 -53 43 -105
l38 -94 246 6 c135 4 268 9 295 12 28 3 73 7 100 10 28 2 82 9 120 14 39 6 92
13 120 17 27 3 59 10 71 15 12 4 24 6 27 3 2 -2 15 0 29 5 14 5 40 12 59 15
45 7 198 52 262 77 99 38 201 94 249 137 56 51 55 52 -22 130 -78 78 -177 128
-300 150 -42 8 -49 6 -88 -24z"/>
<path d="M3738 2430 c-40 -27 -95 -69 -121 -93 l-48 -42 44 -85 c55 -107 213
-414 347 -675 56 -110 106 -204 110 -209 5 -5 24 22 43 60 19 38 51 93 71 123
20 29 36 56 36 60 0 6 -38 95 -140 326 -9 22 -70 163 -135 313 -65 149 -122
272 -126 272 -4 0 -40 -22 -81 -50z"/>
<path d="M5092 2134 c-381 -96 -775 -435 -959 -824 -109 -233 -127 -471 -45
-623 26 -49 61 -80 63 -55 0 7 2 22 5 33 2 11 6 35 9 54 11 79 73 234 138 346
127 218 348 442 543 552 71 40 199 96 245 106 126 30 253 29 338 -3 65 -24
153 -98 166 -139 12 -38 23 -22 37 57 67 365 -176 589 -540 496z"/>
<path d="M5230 1674 c-82 -59 -225 -123 -405 -181 l-110 -36 -111 -111 c-61
-62 -117 -122 -123 -135 l-12 -22 68 6 c37 4 88 8 113 10 25 2 68 7 95 11 28
4 61 8 75 9 50 6 176 27 210 35 19 5 47 12 63 15 15 3 39 8 55 11 51 10 167
47 237 76 77 32 195 99 195 111 0 4 -11 30 -25 58 -50 98 -133 153 -246 164
-35 3 -51 -1 -79 -21z"/>
<path d="M3076 1611 c-21 -38 -39 -142 -31 -180 5 -25 17 -33 84 -59 84 -34
225 -76 281 -86 19 -3 47 -8 63 -11 94 -17 152 -25 232 -31 121 -9 313 -12
325 -4 9 6 -34 100 -75 166 -14 22 -23 24 -185 39 -203 20 -532 97 -641 149
-27 13 -51 21 -53 17z"/>
<path d="M4367 1084 c-20 -27 -50 -77 -67 -112 l-31 -63 97 -187 c53 -103 137
-266 187 -362 50 -96 107 -206 128 -245 l37 -70 71 0 c39 0 71 2 71 6 0 3 -13
37 -29 75 -34 82 -257 606 -276 649 -7 17 -37 86 -66 155 -29 69 -60 142 -70
164 l-17 39 -35 -49z"/>
</g>
</svg>
