<svg xmlns="http://www.w3.org/2000/svg" xmlns:xlink="http://www.w3.org/1999/xlink" width="35" height="31" viewBox="0 0 35 31"><defs><path id="a" d="M0 0h35v31H0z"/></defs><clipPath id="b"><use xlink:href="#a" overflow="visible"/></clipPath><path clip-path="url(#b)" fill="#C8102E" d="M34.633 27.766L19.36 1.215C18.916.443 18.237 0 17.5 0c-.738 0-1.417.443-1.86 1.215L.368 27.766c-.445.772-.488 1.583-.119 2.226C.618 30.632 1.338 31 2.228 31h30.545c.889 0 1.61-.368 1.979-1.009.368-.642.324-1.453-.119-2.225m-1.861 1.233H2.228a.86.86 0 0 1-.224-.025.868.868 0 0 1 .09-.207L17.366 2.216c.053-.09.1-.148.134-.182a.883.883 0 0 1 .134.182l15.272 26.551c.052.09.077.16.091.207a.87.87 0 0 1-.225.025"/><path clip-path="url(#b)" fill="#C8102E" d="M17.5 21.076c.826 0 1.495-.672 1.495-1.501v-6.504c0-.829-.669-1.5-1.495-1.5s-1.495.671-1.495 1.5v6.504c0 .829.669 1.501 1.495 1.501M17.5 22.577c-.826 0-1.495.672-1.495 1.501s.669 1.501 1.495 1.501 1.495-.672 1.495-1.501-.669-1.501-1.495-1.501"/></svg>