<svg xmlns="http://www.w3.org/2000/svg" xmlns:xlink="http://www.w3.org/1999/xlink" width="20" height="20" viewBox="0 0 20 20"><defs><path id="a" d="M0 0h20v20H0z"/></defs><clipPath id="b"><use xlink:href="#a" overflow="visible"/></clipPath><path clip-path="url(#b)" fill="#02AAEC" d="M11.414 10l8.293-8.293A.999.999 0 1 0 18.293.293L10 8.586 1.707.293A.999.999 0 1 0 .293 1.707L8.586 10 .293 18.293a.999.999 0 1 0 1.414 1.414L10 11.414l8.293 8.293a.997.997 0 0 0 1.414 0 .999.999 0 0 0 0-1.414L11.414 10z"/></svg>