<svg xmlns="http://www.w3.org/2000/svg" xmlns:xlink="http://www.w3.org/1999/xlink" width="9" height="14"><defs><path id="a" d="M0 0h9v14H0z"/></defs><clipPath id="b"><use xlink:href="#a" overflow="visible"/></clipPath><path clip-path="url(#b)" fill="#02AAEC" d="M4.5 10.174l4.267-4.18a.762.762 0 0 0 0-1.099.805.805 0 0 0-1.123 0l-2.35 2.302V.778C5.294.348 4.938 0 4.5 0s-.794.348-.794.778v6.419l-2.35-2.302a.805.805 0 0 0-1.123 0 .764.764 0 0 0 0 1.099l4.267 4.18zm3.706 2.27H.794a.786.786 0 0 0-.794.779c0 .428.356.777.794.777h7.412A.787.787 0 0 0 9 13.223a.786.786 0 0 0-.794-.779"/></svg>