<svg id="Layer_1" xmlns="http://www.w3.org/2000/svg" viewBox="0 0 234 234"><style>.st0{fill:#46166b}.st1{fill:#faa634}</style><path class="st0" d="M205.3 68.7c-10.6-21.5-33.9-30.5-59.2-23.1-1.2.3-2.4.7-3.5 1.2-19.7 7-35 25.4-41.1 33.5l-26.9-9.8 13.6 75.7 82.4-40.8-28-10.2c6.5-8.1 16.1-18 25.8-20.8 3.5-1 6.7-1 9.7 0 16.8 5.9 21.6 33.8 21.6 34.1l4.5 28.6 6.3-28.3c.1-.8 4.4-20.7-5.2-40.1z"/><path class="st1" d="M192.7 111.4c-1.7-5.8-4.9-14.3-10.3-20.4v90.4H32.6V14.8c0-2.9 2.4-5.3 5.3-5.3h139.5c2.9 0 5.3 2.4 5.3 5.3v21.9c3.6 1.3 7 3 10.1 5.1V11.5c0-6-4.9-10.9-10.9-10.9H33.4c-6 0-10.9 4.9-10.9 10.9v211.1c0 6 5 10.8 11 10.8h148.4c6 0 10.9-4.9 10.9-10.9V209h-.1v-97.6zm-84 105.3c-4.8 0-8.6-3.9-8.6-8.6 0-4.8 3.9-8.6 8.6-8.6 4.8 0 8.6 3.9 8.6 8.6 0 4.7-3.8 8.6-8.6 8.6z"/></svg>