<svg xmlns="http://www.w3.org/2000/svg" xmlns:xlink="http://www.w3.org/1999/xlink" width="24" height="26" viewBox="0 0 24 26"><defs><path id="a" d="M0 0h24v26H0z"/></defs><clipPath id="b"><use xlink:href="#a" overflow="visible"/></clipPath><path clip-path="url(#b)" fill="#02AAEC" d="M23.764 24.354l-6.657-7.882a10.177 10.177 0 0 0 2.284-6.449C19.391 4.497 15.041 0 9.695 0S0 4.497 0 10.023c0 5.527 4.349 10.023 9.695 10.023 2.261 0 4.338-.812 5.989-2.157l6.553 7.756a1 1 0 1 0 1.527-1.291M2 10.023C2 5.6 5.452 2 9.695 2c4.244 0 7.696 3.599 7.696 8.023s-3.452 8.023-7.696 8.023C5.452 18.047 2 14.447 2 10.023"/></svg>