<?xml version="1.0" encoding="utf-8"?>
<!-- Generator: Adobe Illustrator 21.0.0, SVG Export Plug-In . SVG Version: 6.00 Build 0)  -->
<svg version="1.1"
	 id="Layer_1" inkscape:version="0.91 r13725" sodipodi:docname="ama-logo.svg" xmlns:cc="http://creativecommons.org/ns#" xmlns:dc="http://purl.org/dc/elements/1.1/" xmlns:inkscape="http://www.inkscape.org/namespaces/inkscape" xmlns:rdf="http://www.w3.org/1999/02/22-rdf-syntax-ns#" xmlns:sodipodi="http://sodipodi.sourceforge.net/DTD/sodipodi-0.dtd" xmlns:svg="http://www.w3.org/2000/svg"
	 xmlns="http://www.w3.org/2000/svg" xmlns:xlink="http://www.w3.org/1999/xlink" x="0px" y="0px" viewBox="0 0 114 47"
	 style="enable-background:new 0 0 114 47;" xml:space="preserve">
<style type="text/css">
	.st0{fill:#FFFFFF;}
</style>
<sodipodi:namedview  bordercolor="#666666" borderopacity="1" gridtolerance="10" guidetolerance="10" id="namedview72" inkscape:current-layer="Layer_1" inkscape:cx="32.110098" inkscape:cy="30.959735" inkscape:pageopacity="0" inkscape:pageshadow="2" inkscape:snap-center="true" inkscape:snap-page="true" inkscape:snap-text-baseline="true" inkscape:window-height="977" inkscape:window-maximized="0" inkscape:window-width="1610" inkscape:window-x="0" inkscape:window-y="0" inkscape:zoom="3.2367559" objecttolerance="10" pagecolor="#ffffff" showgrid="false">
	</sodipodi:namedview>
<g id="AMA_logo_xA0_Image_1_" transform="translate(-30.331438,-36.999998)">
</g>
<g id="AMA_Wire_xAE_" transform="translate(-30.331438,-42.099998)">
	<g id="g10">
	</g>
	<g id="g28">
		<g id="g30">
			<path id="path32" inkscape:connector-curvature="0" class="st0" d="M130.4,68.7l-2.3-5.2c-1.6,1.1-2.2,1.8-2.2,1.8l2.5,4.9
				C128.4,70.1,129.4,69.3,130.4,68.7z"/>
			<path id="path34" inkscape:connector-curvature="0" class="st0" d="M123.8,61.1l-1.7-3.4c0.8-0.9,2.6-2.3,2.6-2.3l1.6,3.6
				C126.2,59,124.9,59.9,123.8,61.1z"/>
			<path id="path36" inkscape:connector-curvature="0" class="st0" d="M119.4,52.5l-4.9-9.5h4.8l2.9,6.8v0.1
				C122.3,50,120.8,51,119.4,52.5z"/>
			<path id="path38" inkscape:connector-curvature="0" class="st0" d="M133.7,80.3l-3.4-6.6c0,0,0.7-0.7,1.7-1.3l2.7,6.2
				C134.6,78.6,134.1,79.4,133.7,80.3z"/>
			<path id="path40" inkscape:connector-curvature="0" class="st0" d="M135,83l3,5.8h1l-3.1-7.3C135.9,81.5,135.4,82,135,83z"/>
		</g>
		<path id="path42" inkscape:connector-curvature="0" class="st0" d="M141.7,77.7C141.6,77.8,141.7,77.7,141.7,77.7
			c-0.8,0.6-1.9,1.1-3.4,1.5l-0.2,0.1c0,0-0.5,0.2-1.8,1.8c0.1,0,0.1,0,0.1,0c3.4-0.2,6.2-0.9,7.3-1.8c0.1-0.1,0.1,0,0.1-0.1
			C143.5,78.3,142.9,77.7,141.7,77.7L141.7,77.7z"/>
		<path id="path44" inkscape:connector-curvature="0" class="st0" d="M143.7,61.8c-1.3,1.7-6.1,2.9-11.8,3.1c-1.1,0-1.7,0-2.7,0
			h-0.1l-0.7-1.7c0,0,0.5-0.3,1-0.6c0.7,0,1.1,0,1.8,0c4.8-0.2,7.9-1.4,9.4-2.8C140.6,59.7,142.9,60.2,143.7,61.8z"/>
		<path id="path46" inkscape:connector-curvature="0" class="st0" d="M123.1,61.8c-1.2-0.3-2.4-0.6-3.2-1l-0.2-0.1
			c0,0-0.7,1.1-0.8,2.2l0.2,0.1c0.7,0.4,1.3,0.6,2.3,0.9C121.9,63.2,122.6,62.3,123.1,61.8z"/>
		<path id="path48" inkscape:connector-curvature="0" class="st0" d="M133.5,80.8l-0.7-1.3c-0.1,0-0.1,0-0.2,0
			c-2.3-0.2-4.3-0.6-5.5-1.2c-0.1-0.1,0,0-0.1-0.1c-0.4,1-0.2,1.4-0.2,1.5c0,0-0.1,0,0.1,0C128.3,80.4,130.7,80.9,133.5,80.8
			L133.5,80.8L133.5,80.8z"/>
		<path id="path50" inkscape:connector-curvature="0" class="st0" d="M132.3,72.2l0.6,1.4c0.3,0,0.6,0,0.9,0c5,0,8.9-1,10-2.4
			c-0.9-1.4-2.5-1.6-2.8-1.6c-1.3,1.1-4.1,2-7.9,2C133.2,71.7,132.9,71.8,132.3,72.2z"/>
		<path id="path52" inkscape:connector-curvature="0" class="st0" d="M127.4,71.1c-2-0.4-3.3-0.9-4.4-1.6c-0.1-0.1,0,0-0.1-0.1
			c-0.4,1-0.4,1.6-0.4,2c0.1,0.1,0,0,0.1,0.1c0.9,0.5,1.8,1,3.4,1.4C126.8,71.7,127,71.6,127.4,71.1z"/>
		<path id="path54" inkscape:connector-curvature="0" class="st0" d="M122.2,70.6c0.4-3.3,4.1-7.2,9.3-9.6
			c5.5-2.5,10.7-2.3,12.3,0.2l0.1,0.2c0.4-1.1,0.5-2.3,0.3-3.2c-1-3.7-7.1-4.3-13.6-1.3s-10.9,8.4-9.9,12.1c0.2,0.9,0.8,1.6,1.5,2.1
			C122.2,71.1,122.2,70.6,122.2,70.6z"/>
		<path id="path56" inkscape:connector-curvature="0" class="st0" d="M144,70.8l0.1,0.1c0.3-1,0.4-1.9,0.1-2.7
			c-0.9-3-6-3.3-11.3-0.7c-5.3,2.6-8.8,7.2-7.9,10.3c0.2,0.7,0.7,1.3,1.3,1.7v-0.3c0.3-2.7,3.2-6.2,7.5-8.3
			C138.2,68.7,142.5,68.7,144,70.8L144,70.8z"/>
		<path id="path58" inkscape:connector-curvature="0" class="st0" d="M144,78.7L144,78.7c0.2-0.6,0.3-1.3,0.2-2
			c-0.5-2.4-3.2-2.8-6.2-0.8c-3,1.9-5,5.4-4.5,7.8c0.1,0.6,0.3,1,0.7,1.3v-0.2c0.2-2.1,1.9-4.7,4.2-6.3
			C140.9,76.9,143.3,77,144,78.7z"/>
		<g id="g60">
			<g id="g62">
				<path id="path64" inkscape:connector-curvature="0" class="st0" d="M138.5,47.6c0,0-0.1-0.2-0.2-0.5c-0.1-0.2-0.2-0.3-0.2-0.3
					c-0.3-0.5-1.6-0.5-2.8-0.6c-0.6,0-1.8-0.4-2.3-0.4c-0.7,0-1,0-1.4,0.1s-1.6,0.6-2,0.8l-0.3,0.1c-8.6,3.2-13.9,9.7-12.6,13.7
					c0.3,0.9,1,1.7,2,2.3h0.1c0.5-3.6,5.3-8.5,12.1-11.1l0.2-0.1c0.7-0.2,0.6,0,1.3,0c0.9,0,0.9-0.1,2.3-0.6l3-1.1
					c0,0,0.6-0.2,0.9-0.7C138.8,48.8,138.6,48.2,138.5,47.6z M132.6,47.5c-0.8,0.3-1.2-0.3-1.2-0.3v-0.1c0.6-0.5,1.4-0.5,1.6-0.6
					l0,0l0,0C133.1,47.1,132.9,47.4,132.6,47.5L132.6,47.5z"/>
			</g>
		</g>
		<path id="path66" inkscape:connector-curvature="0" class="st0" d="M42.7,54.6h5.4L59.9,79h-5l-2.5-5.6h-14L35.8,79h-5
			C30.8,79,42.7,54.6,42.7,54.6z M50.5,69.3l-5.1-10.9l-5.1,10.9C40.3,69.3,50.5,69.3,50.5,69.3z"/>
		<path id="path68" inkscape:connector-curvature="0" class="st0" d="M66.3,60.5L66.3,60.5L66.2,79H62V54.6h6.4L76,72.7l7.7-18.1
			h6.2V79h-4.2V60.5h-0.1L77.9,79h-3.8C74.1,79,66.3,60.5,66.3,60.5z"/>
		<path id="path70" inkscape:connector-curvature="0" class="st0" d="M104,54.6h5.4L121.2,79h-5l-2.5-5.6h-14L97.1,79h-5
			C92.1,79,104,54.6,104,54.6z M111.8,69.3l-5.1-10.9l-5.1,10.9H111.8z"/>
	</g>
</g>
</svg>
