<?xml version="1.0" encoding="UTF-8" standalone="no"?>
<!-- Generator: Adobe Illustrator 19.2.1, SVG Export Plug-In . SVG Version: 6.00 Build 0)  -->

<svg
   xmlns:dc="http://purl.org/dc/elements/1.1/"
   xmlns:cc="http://creativecommons.org/ns#"
   xmlns:rdf="http://www.w3.org/1999/02/22-rdf-syntax-ns#"
   xmlns:svg="http://www.w3.org/2000/svg"
   xmlns="http://www.w3.org/2000/svg"
   xmlns:sodipodi="http://sodipodi.sourceforge.net/DTD/sodipodi-0.dtd"
   xmlns:inkscape="http://www.inkscape.org/namespaces/inkscape"
   version="1.1"
   id="Layer_1"
   x="0px"
   y="0px"
   viewBox="0 0 114 47.000001"
   xml:space="preserve"
   inkscape:version="0.91 r13725"
   sodipodi:docname="ama-logo.svg"
   width="114"
   height="47"><metadata
     id="metadata76"><rdf:RDF><cc:Work
         rdf:about=""><dc:format>image/svg+xml</dc:format><dc:type
           rdf:resource="http://purl.org/dc/dcmitype/StillImage" /><dc:title></dc:title></cc:Work></rdf:RDF></metadata><defs
     id="defs74" /><sodipodi:namedview
     pagecolor="#ffffff"
     bordercolor="#666666"
     borderopacity="1"
     objecttolerance="10"
     gridtolerance="10"
     guidetolerance="10"
     inkscape:pageopacity="0"
     inkscape:pageshadow="2"
     inkscape:window-width="1610"
     inkscape:window-height="977"
     id="namedview72"
     showgrid="false"
     inkscape:zoom="3.2367559"
     inkscape:cx="32.110098"
     inkscape:cy="30.959735"
     inkscape:window-x="0"
     inkscape:window-y="0"
     inkscape:window-maximized="0"
     inkscape:current-layer="Layer_1"
     inkscape:snap-page="true"
     inkscape:snap-text-baseline="true"
     inkscape:snap-center="true" /><style
     type="text/css"
     id="style3">
	.st0{enable-background:new    ;}
	.st1{fill:none;stroke:#46166B;stroke-miterlimit:10;}
	.st2{fill:#46166B;}
</style><g
     id="AMA_logo_xA0_Image_1_"
     transform="translate(-30.331438,-36.999998)" /><g
     id="AMA_Wire_xAE_"
     transform="translate(-30.331438,-42.099998)"><g
       id="g10" /><g
       id="g28"><g
         id="g30"><path
           class="st2"
           d="m 130.4,68.7 -2.3,-5.2 c -1.6,1.1 -2.2,1.8 -2.2,1.8 l 2.5,4.9 c 0,-0.1 1,-0.9 2,-1.5 z"
           id="path32"
           inkscape:connector-curvature="0"
           style="fill:#46166b" /><path
           class="st2"
           d="m 123.8,61.1 -1.7,-3.4 c 0.8,-0.9 2.6,-2.3 2.6,-2.3 l 1.6,3.6 c -0.1,0 -1.4,0.9 -2.5,2.1 z"
           id="path34"
           inkscape:connector-curvature="0"
           style="fill:#46166b" /><path
           class="st2"
           d="m 119.4,52.5 -4.9,-9.5 4.8,0 2.9,6.8 0,0.1 c 0.1,0.1 -1.4,1.1 -2.8,2.6 z"
           id="path36"
           inkscape:connector-curvature="0"
           style="fill:#46166b" /><path
           class="st2"
           d="m 133.7,80.3 -3.4,-6.6 c 0,0 0.7,-0.7 1.7,-1.3 l 2.7,6.2 c -0.1,0 -0.6,0.8 -1,1.7 z"
           id="path38"
           inkscape:connector-curvature="0"
           style="fill:#46166b" /><path
           class="st2"
           d="m 135,83 3,5.8 1,0 -3.1,-7.3 c 0,0 -0.5,0.5 -0.9,1.5 z"
           id="path40"
           inkscape:connector-curvature="0"
           style="fill:#46166b" /></g><path
         class="st2"
         d="m 141.7,77.7 c -0.1,0.1 0,0 0,0 -0.8,0.6 -1.9,1.1 -3.4,1.5 l -0.2,0.1 c 0,0 -0.5,0.2 -1.8,1.8 0.1,0 0.1,0 0.1,0 3.4,-0.2 6.2,-0.9 7.3,-1.8 0.1,-0.1 0.1,0 0.1,-0.1 -0.3,-0.9 -0.9,-1.5 -2.1,-1.5 z"
         id="path42"
         inkscape:connector-curvature="0"
         style="fill:#46166b" /><path
         class="st2"
         d="m 143.7,61.8 c -1.3,1.7 -6.1,2.9 -11.8,3.1 -1.1,0 -1.7,0 -2.7,0 l -0.1,0 -0.7,-1.7 c 0,0 0.5,-0.3 1,-0.6 0.7,0 1.1,0 1.8,0 4.8,-0.2 7.9,-1.4 9.4,-2.8 0,-0.1 2.3,0.4 3.1,2 z"
         id="path44"
         inkscape:connector-curvature="0"
         style="fill:#46166b" /><path
         class="st2"
         d="m 123.1,61.8 c -1.2,-0.3 -2.4,-0.6 -3.2,-1 l -0.2,-0.1 c 0,0 -0.7,1.1 -0.8,2.2 l 0.2,0.1 c 0.7,0.4 1.3,0.6 2.3,0.9 0.5,-0.7 1.2,-1.6 1.7,-2.1 z"
         id="path46"
         inkscape:connector-curvature="0"
         style="fill:#46166b" /><path
         class="st2"
         d="m 133.5,80.8 -0.7,-1.3 c -0.1,0 -0.1,0 -0.2,0 -2.3,-0.2 -4.3,-0.6 -5.5,-1.2 -0.1,-0.1 0,0 -0.1,-0.1 -0.4,1 -0.2,1.4 -0.2,1.5 0,0 -0.1,0 0.1,0 1.4,0.7 3.8,1.2 6.6,1.1 l 0,0 z"
         id="path48"
         inkscape:connector-curvature="0"
         style="fill:#46166b" /><path
         class="st2"
         d="m 132.3,72.2 0.6,1.4 c 0.3,0 0.6,0 0.9,0 5,0 8.9,-1 10,-2.4 -0.9,-1.4 -2.5,-1.6 -2.8,-1.6 -1.3,1.1 -4.1,2 -7.9,2 0.1,0.1 -0.2,0.2 -0.8,0.6 z"
         id="path50"
         inkscape:connector-curvature="0"
         style="fill:#46166b" /><path
         class="st2"
         d="m 127.4,71.1 c -2,-0.4 -3.3,-0.9 -4.4,-1.6 -0.1,-0.1 0,0 -0.1,-0.1 -0.4,1 -0.4,1.6 -0.4,2 0.1,0.1 0,0 0.1,0.1 0.9,0.5 1.8,1 3.4,1.4 0.8,-1.2 1,-1.3 1.4,-1.8 z"
         id="path52"
         inkscape:connector-curvature="0"
         style="fill:#46166b" /><path
         class="st2"
         d="m 122.2,70.6 c 0.4,-3.3 4.1,-7.2 9.3,-9.6 5.5,-2.5 10.7,-2.3 12.3,0.2 l 0.1,0.2 c 0.4,-1.1 0.5,-2.3 0.3,-3.2 -1,-3.7 -7.1,-4.3 -13.6,-1.3 -6.5,3 -10.9,8.4 -9.9,12.1 0.2,0.9 0.8,1.6 1.5,2.1 l 0,-0.5 z"
         id="path54"
         inkscape:connector-curvature="0"
         style="fill:#46166b" /><path
         class="st2"
         d="m 144,70.8 0.1,0.1 c 0.3,-1 0.4,-1.9 0.1,-2.7 -0.9,-3 -6,-3.3 -11.3,-0.7 -5.3,2.6 -8.8,7.2 -7.9,10.3 0.2,0.7 0.7,1.3 1.3,1.7 l 0,-0.3 c 0.3,-2.7 3.2,-6.2 7.5,-8.3 4.4,-2.2 8.7,-2.2 10.2,-0.1 z"
         id="path56"
         inkscape:connector-curvature="0"
         style="fill:#46166b" /><path
         class="st2"
         d="m 144,78.7 0,0 c 0.2,-0.6 0.3,-1.3 0.2,-2 -0.5,-2.4 -3.2,-2.8 -6.2,-0.8 -3,1.9 -5,5.4 -4.5,7.8 0.1,0.6 0.3,1 0.7,1.3 l 0,-0.2 c 0.2,-2.1 1.9,-4.7 4.2,-6.3 2.5,-1.6 4.9,-1.5 5.6,0.2 z"
         id="path58"
         inkscape:connector-curvature="0"
         style="fill:#46166b" /><g
         id="g60"><g
           id="g62"><path
             class="st2"
             d="m 138.5,47.6 c 0,0 -0.1,-0.2 -0.2,-0.5 -0.1,-0.2 -0.2,-0.3 -0.2,-0.3 -0.3,-0.5 -1.6,-0.5 -2.8,-0.6 -0.6,0 -1.8,-0.4 -2.3,-0.4 -0.7,0 -1,0 -1.4,0.1 -0.4,0.1 -1.6,0.6 -2,0.8 l -0.3,0.1 c -8.6,3.2 -13.9,9.7 -12.6,13.7 0.3,0.9 1,1.7 2,2.3 l 0.1,0 c 0.5,-3.6 5.3,-8.5 12.1,-11.1 l 0.2,-0.1 c 0.7,-0.2 0.6,0 1.3,0 0.9,0 0.9,-0.1 2.3,-0.6 l 3,-1.1 c 0,0 0.6,-0.2 0.9,-0.7 0.2,-0.4 0,-1 -0.1,-1.6 z m -5.9,-0.1 c -0.8,0.3 -1.2,-0.3 -1.2,-0.3 l 0,-0.1 c 0.6,-0.5 1.4,-0.5 1.6,-0.6 l 0,0 0,0 c 0.1,0.6 -0.1,0.9 -0.4,1 z"
             id="path64"
             inkscape:connector-curvature="0"
             style="fill:#46166b" /></g></g><path
         class="st2"
         d="m 42.7,54.6 5.4,0 11.8,24.4 -5,0 -2.5,-5.6 -14,0 -2.6,5.6 -5,0 11.9,-24.4 z m 7.8,14.7 -5.1,-10.9 -5.1,10.9 10.2,0 z"
         id="path66"
         inkscape:connector-curvature="0"
         style="fill:#46166b" /><path
         class="st2"
         d="m 66.3,60.5 0,0 -0.1,18.5 -4.2,0 0,-24.4 6.4,0 7.6,18.1 7.7,-18.1 6.2,0 0,24.4 -4.2,0 0,-18.5 -0.1,0 -7.7,18.5 -3.8,0 -7.8,-18.5 z"
         id="path68"
         inkscape:connector-curvature="0"
         style="fill:#46166b" /><path
         class="st2"
         d="m 104,54.6 5.4,0 11.8,24.4 -5,0 -2.5,-5.6 -14,0 -2.6,5.6 -5,0 11.9,-24.4 z m 7.8,14.7 -5.1,-10.9 -5.1,10.9 10.2,0 z"
         id="path70"
         inkscape:connector-curvature="0"
         style="fill:#46166b" /></g></g></svg>