<?xml version="1.0" encoding="utf-8"?>
<!-- Generator: Adobe Illustrator 16.0.0, SVG Export Plug-In . SVG Version: 6.00 Build 0)  -->
<!DOCTYPE svg PUBLIC "-//W3C//DTD SVG 1.1//EN" "http://www.w3.org/Graphics/SVG/1.1/DTD/svg11.dtd">
<svg version="1.1" id="Layer_1" xmlns="http://www.w3.org/2000/svg" xmlns:xlink="http://www.w3.org/1999/xlink" x="0px" y="0px"
	 width="35px" height="31px" viewBox="0 0 35 31" enable-background="new 0 0 35 31" xml:space="preserve">
<g>
	<defs>
		<rect id="SVGID_1_" width="35" height="31"/>
	</defs>
	<clipPath id="SVGID_2_">
		<use xlink:href="#SVGID_1_"  overflow="visible"/>
	</clipPath>
	<path clip-path="url(#SVGID_2_)" fill="#C8102E" d="M34.633,27.766L19.36,1.215C18.916,0.443,18.237,0,17.5,0
		c-0.738,0-1.417,0.443-1.86,1.215L0.368,27.766c-0.445,0.772-0.488,1.583-0.119,2.226C0.618,30.632,1.338,31,2.228,31h30.545
		c0.889,0,1.61-0.368,1.979-1.009C35.12,29.349,35.076,28.538,34.633,27.766 M32.772,28.999H2.228c-0.103,0-0.177-0.012-0.224-0.025
		c0.012-0.047,0.039-0.118,0.09-0.207L17.366,2.216c0.053-0.09,0.1-0.148,0.134-0.182c0.034,0.034,0.082,0.092,0.134,0.182
		l15.272,26.551c0.052,0.09,0.077,0.16,0.091,0.207C32.949,28.987,32.876,28.999,32.772,28.999"/>
	<path clip-path="url(#SVGID_2_)" fill="#C8102E" d="M17.5,21.076c0.826,0,1.495-0.672,1.495-1.501v-6.504
		c0-0.829-0.669-1.5-1.495-1.5s-1.495,0.671-1.495,1.5v6.504C16.005,20.404,16.674,21.076,17.5,21.076"/>
	<path clip-path="url(#SVGID_2_)" fill="#C8102E" d="M17.5,22.577c-0.826,0-1.495,0.672-1.495,1.501s0.669,1.501,1.495,1.501
		s1.495-0.672,1.495-1.501S18.326,22.577,17.5,22.577"/>
</g>
</svg>
