<?xml version="1.0" encoding="utf-8"?>
<!-- Generator: Adobe Illustrator 21.0.0, SVG Export Plug-In . SVG Version: 6.00 Build 0)  -->
<svg fill="#C8102E" version="1.1" id="Layer_1" xmlns="http://www.w3.org/2000/svg" xmlns:xlink="http://www.w3.org/1999/xlink" x="0px" y="0px"
	 viewBox="0 0 35 31" style="enable-background:new 0 0 35 31;" xml:space="preserve">
<path d="M34.6,27.8L19.4,1.2C18.9,0.4,18.2,0,17.5,0c-0.7,0-1.4,0.4-1.9,1.2L0.4,27.8c-0.4,0.8-0.5,1.6-0.1,2.2c0.4,0.6,1.1,1,2,1
	h30.5c0.9,0,1.6-0.4,2-1C35.1,29.3,35.1,28.5,34.6,27.8 M32.8,29H2.2c-0.1,0-0.2,0-0.2,0c0,0,0-0.1,0.1-0.2L17.4,2.2
	c0.1-0.1,0.1-0.1,0.1-0.2c0,0,0.1,0.1,0.1,0.2l15.3,26.6C33,28.9,33,28.9,33,29C32.9,29,32.9,29,32.8,29"/>
<path d="M17.5,21.1c0.8,0,1.5-0.7,1.5-1.5v-6.5c0-0.8-0.7-1.5-1.5-1.5S16,12.2,16,13.1v6.5C16,20.4,16.7,21.1,17.5,21.1"/>
<path d="M17.5,22.6c-0.8,0-1.5,0.7-1.5,1.5s0.7,1.5,1.5,1.5s1.5-0.7,1.5-1.5S18.3,22.6,17.5,22.6"/>
</svg>
