<?xml version="1.0" encoding="utf-8"?>
<!-- Generator: Adobe Illustrator 21.1.0, SVG Export Plug-In . SVG Version: 6.00 Build 0)  -->
<svg version="1.1" id="Layer_1" xmlns="http://www.w3.org/2000/svg" xmlns:xlink="http://www.w3.org/1999/xlink" x="0px" y="0px"
	 viewBox="0 0 234 234" style="enable-background:new 0 0 234 234;" xml:space="preserve">
<style type="text/css">
	.st0{fill:#FAA634;}
	.st1{fill:#46166B;}
</style>
<g>
	<path class="st0" d="M202.4,48.5L157.8,0.4l-115.2,0c-6,0-10.9,4.9-10.9,10.9v211.3c0,6,4.9,10.9,10.9,10.9h148.9
		c6,0,10.9-4.9,10.9-10.9v-161l0,0L202.4,48.5z M156.8,12.4L191,49.3h-28.9c-2.9,0-5.3-2.4-5.3-5.3V12.4z M192.2,219.4
		c0,2.9-2.4,5.3-5.3,5.3H47.1c-2.9,0-5.3-2.4-5.3-5.3V14.6c0-2.9,2.4-5.3,5.3-5.3h99.6v38c0,6,4.9,10.9,10.9,10.9h34.6V219.4z"/>
	<path class="st1" d="M107.8,83.2c-1.8,0-3.4,0.9-4.4,2.2l-26,25.7H56.2c-2,0-3.6,1.6-3.6,3.6v32.9c0,2,1.6,3.6,3.6,3.6h21.2
		l26.5,26.3v0c1,1,2.4,1.7,3.9,1.7c2.9,0,5.3-2.3,5.4-5.2h0v-0.2c0,0,0,0,0-0.1s0,0,0-0.1V88.7h0c0,0,0-0.1,0-0.1
		C113.2,85.6,110.8,83.2,107.8,83.2z"/>
	<path class="st1" d="M119.3,107c7.1,6.8,11.3,15.4,11.3,24.9c0,8.6-3.5,16.5-9.5,23c4.8,2.1,9.3,4.5,13.6,6.9
		c7.6-8.5,12.1-18.7,12.1-29.9c0-11.9-5.1-22.9-13.8-31.6C128.8,102.7,124.1,104.9,119.3,107z"/>
	<path class="st1" d="M164.1,131.9c0,14.3-5.9,27.6-16,38.4c4.5,3.2,8.6,6.4,12.4,9.7c13.1-13.3,20.9-30,20.9-48.1
		c0-18.7-8.4-36-22.4-49.5c-3.8,3.2-7.9,6.4-12.4,9.5C157.6,103,164.1,116.8,164.1,131.9z"/>
</g>
</svg>
