<svg id="Layer_1" xmlns="http://www.w3.org/2000/svg" viewBox="0 0 234 234"><style>.st1{fill:#46166b}</style><path d="M202.4 48.5L157.8.4H42.6c-6 0-10.9 4.9-10.9 10.9v211.3c0 6 4.9 10.9 10.9 10.9h148.9c6 0 10.9-4.9 10.9-10.9V48.5zm-45.6-36.1L191 49.3h-28.9c-2.9 0-5.3-2.4-5.3-5.3V12.4zm35.4 207c0 2.9-2.4 5.3-5.3 5.3H47.1c-2.9 0-5.3-2.4-5.3-5.3V14.6c0-2.9 2.4-5.3 5.3-5.3h99.6v38c0 6 4.9 10.9 10.9 10.9h34.6v161.2z" fill="#faa634"/><path class="st1" d="M107.8 83.2c-1.8 0-3.4.9-4.4 2.2l-26 25.7H56.2c-2 0-3.6 1.6-3.6 3.6v32.9c0 2 1.6 3.6 3.6 3.6h21.2l26.5 26.3c1 1 2.4 1.7 3.9 1.7 2.9 0 5.3-2.3 5.4-5.2v-.2-.1-85-.1c0-3-2.4-5.4-5.4-5.4zM119.3 107c7.1 6.8 11.3 15.4 11.3 24.9 0 8.6-3.5 16.5-9.5 23 4.8 2.1 9.3 4.5 13.6 6.9 7.6-8.5 12.1-18.7 12.1-29.9 0-11.9-5.1-22.9-13.8-31.6-4.2 2.4-8.9 4.6-13.7 6.7zM164.1 131.9c0 14.3-5.9 27.6-16 38.4 4.5 3.2 8.6 6.4 12.4 9.7 13.1-13.3 20.9-30 20.9-48.1 0-18.7-8.4-36-22.4-49.5-3.8 3.2-7.9 6.4-12.4 9.5 11 11.1 17.5 24.9 17.5 40z"/></svg>