<?xml version="1.0" encoding="utf-8"?>
<!-- Generator: Adobe Illustrator 16.0.0, SVG Export Plug-In . SVG Version: 6.00 Build 0)  -->
<!DOCTYPE svg PUBLIC "-//W3C//DTD SVG 1.1//EN" "http://www.w3.org/Graphics/SVG/1.1/DTD/svg11.dtd">
<svg version="1.1" id="Layer_1" xmlns="http://www.w3.org/2000/svg" xmlns:xlink="http://www.w3.org/1999/xlink" x="0px" y="0px"
	 width="27.999px" height="28px" viewBox="0 0 27.999 28" enable-background="new 0 0 27.999 28" xml:space="preserve">
<g>
	<defs>
		<rect id="SVGID_1_" width="27.999" height="28"/>
	</defs>
	<clipPath id="SVGID_2_">
		<use xlink:href="#SVGID_1_"  overflow="visible"/>
	</clipPath>
	<path clip-path="url(#SVGID_2_)" fill="#A1A1A4" d="M13.999,0C6.268,0,0,6.269,0,14c0,7.731,6.267,14,13.999,14
		c7.732,0,14-6.269,14-14C27.999,6.269,21.731,0,13.999,0 M18.956,17.543c0.392,0.391,0.392,1.022,0,1.414
		c-0.194,0.195-0.45,0.293-0.707,0.293c-0.256,0-0.512-0.098-0.707-0.293l-3.543-3.543l-3.542,3.543
		c-0.195,0.195-0.451,0.293-0.707,0.293c-0.256,0-0.512-0.098-0.707-0.293c-0.391-0.392-0.391-1.023,0-1.414L12.585,14l-3.543-3.543
		c-0.391-0.391-0.391-1.023,0-1.414s1.023-0.391,1.414,0l3.542,3.543l3.543-3.543c0.392-0.391,1.023-0.391,1.414,0
		c0.392,0.391,0.392,1.023,0,1.414L15.413,14L18.956,17.543z"/>
</g>
</svg>
