<svg xmlns="http://www.w3.org/2000/svg" xmlns:xlink="http://www.w3.org/1999/xlink" width="27.999" height="28"><defs><path id="a" d="M0 0h27.999v28H0z"/></defs><clipPath id="b"><use xlink:href="#a" overflow="visible"/></clipPath><path clip-path="url(#b)" fill="#A1A1A4" d="M13.999 0C6.268 0 0 6.269 0 14s6.267 14 13.999 14 14-6.269 14-14-6.268-14-14-14m4.957 17.543a.997.997 0 0 1 0 1.414.997.997 0 0 1-1.414 0l-3.543-3.543-3.542 3.543a.997.997 0 0 1-1.414 0 .999.999 0 0 1 0-1.414L12.585 14l-3.543-3.543a.999.999 0 1 1 1.414-1.414l3.542 3.543 3.543-3.543a.999.999 0 1 1 1.414 1.414L15.413 14l3.543 3.543z"/></svg>