<?xml version="1.0" encoding="utf-8"?>
<!-- Generator: Adobe Illustrator 21.0.0, SVG Export Plug-In . SVG Version: 6.00 Build 0)  -->
<svg version="1.1" id="Layer_1" xmlns="http://www.w3.org/2000/svg" xmlns:xlink="http://www.w3.org/1999/xlink" x="0px" y="0px"
	 viewBox="0 0 20 20" style="enable-background:new 0 0 20 20;" xml:space="preserve">
<path d="M11.4,10l8.3-8.3c0.4-0.4,0.4-1,0-1.4s-1-0.4-1.4,0L10,8.6L1.7,0.3c-0.4-0.4-1-0.4-1.4,0s-0.4,1,0,1.4L8.6,10l-8.3,8.3
	c-0.4,0.4-0.4,1,0,1.4C0.5,19.9,0.7,20,1,20s0.5-0.1,0.7-0.3l8.3-8.3l8.3,8.3c0.2,0.2,0.5,0.3,0.7,0.3s0.5-0.1,0.7-0.3
	c0.4-0.4,0.4-1,0-1.4L11.4,10z"/>
</svg>
