<?xml version="1.0" encoding="utf-8"?>
<!-- Generator: Adobe Illustrator 21.1.0, SVG Export Plug-In . SVG Version: 6.00 Build 0)  -->
<svg version="1.1" id="Layer_1" xmlns="http://www.w3.org/2000/svg" xmlns:xlink="http://www.w3.org/1999/xlink" x="0px" y="0px"
	 viewBox="0 0 234 234" style="enable-background:new 0 0 234 234;" xml:space="preserve">
<style type="text/css">
	.st0{fill:#46166B;}
	.st1{fill:#FAA634;}
</style>
<g>
	<path class="st0" d="M117,80.8c-42.3,0-76.5,34.3-76.5,76.5c0,42.3,34.3,76.5,76.5,76.5c42.3,0,76.5-34.3,76.5-76.5
		C193.5,115,159.3,80.8,117,80.8z M117,222.8c-36.1,0-65.5-29.4-65.5-65.5c0-36.1,29.4-65.5,65.5-65.5c36.1,0,65.5,29.4,65.5,65.5
		C182.5,193.4,153.1,222.8,117,222.8z"/>
	<path class="st0" d="M117,100.1c-31.5,0-57.2,25.7-57.2,57.2c0,31.5,25.7,57.2,57.2,57.2c31.5,0,57.2-25.7,57.2-57.2
		C174.2,125.7,148.5,100.1,117,100.1z M91.4,166.9c1.7,0,3.8-0.3,4.9-0.8l1,6.6c-1.1,0.5-3.8,1.2-7.2,1.2
		c-11.3,0-16.1-7.6-16.1-16.1c0-11.6,7.9-17.2,16.7-17.2c3.3,0,5.9,0.6,7,1.3l-1.5,6.7c-1.2-0.5-2.9-1-5.1-1c-4.6,0-8.5,2.9-8.5,9.8
		C82.8,163.5,86.1,166.9,91.4,166.9z M127.2,173.5l-0.4-11.2c-0.1-3.3-0.2-7.6-0.2-12.1h-0.1c-0.8,4-2.1,8.7-2.9,11.7l-2.9,10.9
		h-6.4l-2.6-10.9c-0.7-3-1.7-7.6-2.3-11.7h-0.1c-0.2,4.2-0.4,8.8-0.5,12.1l-0.5,11.2h-7.5l2.2-32.4h10.5l2.1,9.2
		c0.9,3.7,1.8,7.8,2.4,11.7h0.1c0.8-3.8,1.8-8.2,2.6-11.8l2.3-9.2h10.3l1.7,32.4H127.2z M140.1,173.5v-32.4h19.2v6.9h-10.9v5.5h10.3
		v6.8h-10.3v6.4H160v6.9H140.1z"/>
	<path class="st1" d="M94.7,75.3c6.9-2.1,14.3-3.3,21.9-3.3c5.8,0,11.5,0.7,16.9,2L91.3,0.2H48.7l42.9,75.1H94.7z"/>
	<polygon class="st1" points="185.3,0.2 136.6,0.2 115.8,32.9 140,75.3 	"/>
</g>
</svg>
