<svg id="Layer_1" xmlns="http://www.w3.org/2000/svg" viewBox="0 0 234 234"><style>.st0{fill:#46166b}.st1{fill:#faa634}</style><path class="st0" d="M117 80.8c-42.3 0-76.5 34.3-76.5 76.5 0 42.3 34.3 76.5 76.5 76.5 42.3 0 76.5-34.3 76.5-76.5 0-42.3-34.2-76.5-76.5-76.5zm0 142c-36.1 0-65.5-29.4-65.5-65.5S80.9 91.8 117 91.8s65.5 29.4 65.5 65.5-29.4 65.5-65.5 65.5z"/><path class="st0" d="M117 100.1c-31.5 0-57.2 25.7-57.2 57.2 0 31.5 25.7 57.2 57.2 57.2 31.5 0 57.2-25.7 57.2-57.2 0-31.6-25.7-57.2-57.2-57.2zm-25.6 66.8c1.7 0 3.8-.3 4.9-.8l1 6.6c-1.1.5-3.8 1.2-7.2 1.2-11.3 0-16.1-7.6-16.1-16.1 0-11.6 7.9-17.2 16.7-17.2 3.3 0 5.9.6 7 1.3l-1.5 6.7c-1.2-.5-2.9-1-5.1-1-4.6 0-8.5 2.9-8.5 9.8.2 6.1 3.5 9.5 8.8 9.5zm35.8 6.6l-.4-11.2c-.1-3.3-.2-7.6-.2-12.1h-.1c-.8 4-2.1 8.7-2.9 11.7l-2.9 10.9h-6.4l-2.6-10.9c-.7-3-1.7-7.6-2.3-11.7h-.1c-.2 4.2-.4 8.8-.5 12.1l-.5 11.2h-7.5l2.2-32.4h10.5l2.1 9.2c.9 3.7 1.8 7.8 2.4 11.7h.1c.8-3.8 1.8-8.2 2.6-11.8l2.3-9.2h10.3l1.7 32.4h-7.8zm12.9 0v-32.4h19.2v6.9h-10.9v5.5h10.3v6.8h-10.3v6.4H160v6.9h-19.9z"/><path class="st1" d="M94.7 75.3c6.9-2.1 14.3-3.3 21.9-3.3 5.8 0 11.5.7 16.9 2L91.3.2H48.7l42.9 75.1h3.1zM185.3.2h-48.7l-20.8 32.7L140 75.3z"/></svg>