<?xml version="1.0" encoding="utf-8"?>
<!-- Generator: Adobe Illustrator 16.0.0, SVG Export Plug-In . SVG Version: 6.00 Build 0)  -->
<!DOCTYPE svg PUBLIC "-//W3C//DTD SVG 1.1//EN" "http://www.w3.org/Graphics/SVG/1.1/DTD/svg11.dtd">
<svg version="1.1" id="Layer_1" xmlns="http://www.w3.org/2000/svg" xmlns:xlink="http://www.w3.org/1999/xlink" x="0px" y="0px"
	 width="9px" height="14px" viewBox="0 0 9 14" enable-background="new 0 0 9 14" xml:space="preserve">
<g>
	<defs>
		<rect id="SVGID_1_" width="9" height="14"/>
	</defs>
	<clipPath id="SVGID_2_">
		<use xlink:href="#SVGID_1_"  overflow="visible"/>
	</clipPath>
	<path clip-path="url(#SVGID_2_)" fill="#02AAEC" d="M4.5,10.174l4.267-4.18c0.312-0.303,0.312-0.796,0-1.099
		c-0.31-0.304-0.812-0.304-1.123,0l-2.35,2.302V0.778C5.294,0.348,4.938,0,4.5,0S3.706,0.348,3.706,0.778v6.419l-2.35-2.302
		c-0.311-0.304-0.813-0.304-1.123,0c-0.311,0.303-0.311,0.796,0,1.099L4.5,10.174z"/>
	<path clip-path="url(#SVGID_2_)" fill="#02AAEC" d="M8.206,12.444H0.794C0.356,12.444,0,12.792,0,13.223
		C0,13.651,0.356,14,0.794,14h7.412C8.644,14,9,13.651,9,13.223C9,12.792,8.644,12.444,8.206,12.444"/>
</g>
</svg>
