<svg xmlns="http://www.w3.org/2000/svg" viewBox="0 0 234 234"><path d="M186.6 129.1c-2.6 2.7-6.1 5.8-10.3 9v43.4H25.9V14.4c0-2.9 2.4-5.3 5.3-5.3h139.9c2.9 0 5.3 2.4 5.3 5.3v32.4l10.1-4.8V11.2c0-6-4.9-10.9-10.9-10.9H26.7c-6 0-10.9 4.9-10.9 10.9v211.7c0 6 5 10.9 11 10.9h148.9c6 0 10.9-4.9 10.9-10.9v-13.5h-.1v-80.3zM102.3 217c-4.8 0-8.6-3.9-8.6-8.6s3.9-8.6 8.6-8.6c4.8 0 8.6 3.9 8.6 8.6s-3.8 8.6-8.6 8.6z" fill="#faa634"/><path d="M204.6 42.8l-82.6 41L150.1 94c-6.6 8.2-16.1 18-25.9 20.9-3.6 1-6.8 1-9.8 0C97.5 109 92.7 81 92.7 80.7L88.1 52l-6.3 28.4c-.2.8-4.4 20.8 5.2 40.3 10.7 21.6 34 30.6 59.4 23.2 1.2-.3 2.4-.7 3.6-1.2 19.8-7 35.2-25.4 41.3-33.6l27 9.8-13.7-76.1z" fill="#46166b"/></svg>