<?xml version="1.0" encoding="utf-8"?>
<!-- Generator: Adobe Illustrator 21.1.0, SVG Export Plug-In . SVG Version: 6.00 Build 0)  -->
<svg version="1.1" id="Layer_1" xmlns="http://www.w3.org/2000/svg" xmlns:xlink="http://www.w3.org/1999/xlink" x="0px" y="0px"
	 viewBox="0 0 234 234" style="enable-background:new 0 0 234 234;" xml:space="preserve">
<style type="text/css">
	.st0{fill:#FAA634;}
	.st1{fill:#46166B;}
</style>
<g>
	<path class="st0" d="M186.6,129.1c-2.6,2.7-6.1,5.8-10.3,9v43.4l-5,0H33.8l-0.3,0l-7.6,0l0-0.1v-23.9h0V14.4c0-2.9,2.4-5.3,5.3-5.3
		h139.9c2.9,0,5.3,2.4,5.3,5.3v32.4l10.1-4.8V11.2c0-6-4.9-10.9-10.9-10.9H26.7c-6,0-10.9,4.9-10.9,10.9v161.1l0,0l0,9.5h0v41.1
		c0,6,5,10.9,11,10.9h148.9c6,0,10.9-4.9,10.9-10.9v-13.5h-0.1V129.1z M102.3,217c-4.8,0-8.6-3.9-8.6-8.6s3.9-8.6,8.6-8.6
		c4.8,0,8.6,3.9,8.6,8.6S107.1,217,102.3,217z"/>
	<path class="st1" d="M204.6,42.8l-82.6,41l28.1,10.2c-6.6,8.2-16.1,18-25.9,20.9c-3.6,1-6.8,1-9.8,0c-16.9-5.9-21.7-33.9-21.7-34.2
		l-4.6-28.7l-6.3,28.4c-0.2,0.8-4.4,20.8,5.2,40.3c10.7,21.6,34,30.6,59.4,23.2c1.2-0.3,2.4-0.7,3.6-1.2c19.8-7,35.2-25.4,41.3-33.6
		l27,9.8L204.6,42.8z"/>
</g>
</svg>
