<svg id="Layer_1" data-name="Layer 1" xmlns="http://www.w3.org/2000/svg" viewBox="0 0 44 44"><title>AMA_icons_v01_0520</title><path d="M22,0A22,22,0,1,0,44,22,22,22,0,0,0,22,0Zm2,27.91c-2.45,3.44-7.36,4.45-11.2,3a9.85,9.85,0,0,1,3.57-19,10,10,0,0,1,6.57,2.43,35.05,35.05,0,0,1-2.5,2.58c-2.24-1.55-5.42-2-7.65-.2a6.3,6.3,0,0,0-.27,9.82c3,2.72,8.65,1.37,9.48-2.79-1.87,0-3.75,0-5.63-.06,0-1.12,0-2.24,0-3.36,3.13,0,6.27,0,9.41,0A11.28,11.28,0,0,1,24,27.91Zm13.51-4.82-2.81,0c0,0.94,0,1.87,0,2.81h-2.8c0-.94,0-1.87,0-2.81l-2.81,0V20.3l2.81,0c0-.94,0-1.87,0-2.81h2.8c0,0.94,0,1.87,0,2.81l2.81,0v2.8Z"/></svg>