<?xml version="1.0" encoding="utf-8"?>
<!-- Generator: Adobe Illustrator 16.0.0, SVG Export Plug-In . SVG Version: 6.00 Build 0)  -->
<!DOCTYPE svg PUBLIC "-//W3C//DTD SVG 1.1//EN" "http://www.w3.org/Graphics/SVG/1.1/DTD/svg11.dtd">
<svg version="1.1" id="Layer_1" xmlns="http://www.w3.org/2000/svg" xmlns:xlink="http://www.w3.org/1999/xlink" x="0px" y="0px"
	 width="30px" height="18px" viewBox="0 0 30 18" enable-background="new 0 0 30 18" xml:space="preserve">
<g>
	<defs>
		<rect id="SVGID_1_" width="30" height="18"/>
	</defs>
	<clipPath id="SVGID_2_">
		<use xlink:href="#SVGID_1_"  overflow="visible"/>
	</clipPath>
	<path clip-path="url(#SVGID_2_)" fill="#A1A1A4" d="M15,0C6.716,0,0,9,0,9s6.716,9,15,9s15-9,15-9S23.284,0,15,0 M15,15
		c-3.314,0-6-2.686-6-6c0-3.314,2.686-6,6-6c3.314,0,6,2.686,6,6C21,12.314,18.314,15,15,15"/>
	<path clip-path="url(#SVGID_2_)" fill="#A1A1A4" d="M15,6c-1.657,0-3,1.343-3,3s1.343,3,3,3s3-1.343,3-3S16.657,6,15,6"/>
</g>
</svg>
