<?xml version="1.0" encoding="utf-8"?>
<!-- Generator: Adobe Illustrator 21.0.0, SVG Export Plug-In . SVG Version: 6.00 Build 0)  -->
<svg fill="#02aaec" version="1.1" id="Layer_1" xmlns="http://www.w3.org/2000/svg" xmlns:xlink="http://www.w3.org/1999/xlink" x="0px" y="0px"
	 viewBox="0 0 30 30" style="enable-background:new 0 0 30 30;" xml:space="preserve">
<path d="M15,0C6.7,0,0,6.7,0,15s6.7,15,15,15s15-6.7,15-15S23.3,0,15,0 M15,28C7.8,28,2,22.2,2,15S7.8,2,15,2c7.2,0,13,5.8,13,13
	S22.2,28,15,28"/>
<path d="M15,12.8c-0.8,0-1.5,0.7-1.5,1.5v6.5c0,0.8,0.7,1.5,1.5,1.5s1.5-0.7,1.5-1.5v-6.5C16.5,13.4,15.8,12.8,15,12.8"/>
<path d="M15,8.2c-0.8,0-1.5,0.7-1.5,1.5s0.7,1.5,1.5,1.5s1.5-0.7,1.5-1.5S15.8,8.2,15,8.2"/>
</svg>
