<?xml version="1.0" encoding="utf-8"?>
<!-- Generator: Adobe Illustrator 21.1.0, SVG Export Plug-In . SVG Version: 6.00 Build 0)  -->
<svg version="1.1" id="Layer_1" xmlns="http://www.w3.org/2000/svg" xmlns:xlink="http://www.w3.org/1999/xlink" x="0px" y="0px"
	 viewBox="0 0 234 234" style="enable-background:new 0 0 234 234;" xml:space="preserve">
<style type="text/css">
	.st0{fill:#46166B;}
	.st1{fill:#FAA634;}
</style>
<g>
	<path class="st0" d="M205.3,68.7c-10.6-21.5-33.9-30.5-59.2-23.1c-1.2,0.3-2.4,0.7-3.5,1.2c-19.7,7-35,25.4-41.1,33.5l-26.9-9.8
		l13.6,75.7l82.4-40.8l-28-10.2c6.5-8.1,16.1-18,25.8-20.8c3.5-1,6.7-1,9.7,0c16.8,5.9,21.6,33.8,21.6,34.1l4.5,28.6l6.3-28.3
		C210.6,108,214.9,88.1,205.3,68.7z"/>
	<path class="st1" d="M192.7,111.4c-1.7-5.8-4.9-14.3-10.3-20.4v90.4l-5,0h-137l-0.3,0l-7.5,0l0-0.1v-23.8h0V14.8
		c0-2.9,2.4-5.3,5.3-5.3h139.5c2.9,0,5.3,2.4,5.3,5.3v21.9c3.6,1.3,7,3,10.1,5.1V11.5c0-6-4.9-10.9-10.9-10.9H33.4
		c-6,0-10.9,4.9-10.9,10.9v160.6l0,0l0,9.5h0v41c0,6,5,10.8,11,10.8h148.4c6,0,10.9-4.9,10.9-10.9V209h-0.1V111.4z M108.7,216.7
		c-4.8,0-8.6-3.9-8.6-8.6c0-4.8,3.9-8.6,8.6-8.6c4.8,0,8.6,3.9,8.6,8.6C117.3,212.8,113.5,216.7,108.7,216.7z"/>
</g>
</svg>
