<svg id="Layer_1" xmlns="http://www.w3.org/2000/svg" viewBox="0 0 234 234"><style>.st0{fill:#faa634}</style><path class="st0" d="M51.2 42.3c-.6 0-1 .1-1.3.1v4.9c.3.1.5.1 1 .1 1.9 0 2.9-1.1 2.9-2.7 0-1.4-.8-2.4-2.6-2.4zM67.1 42.3c-.6 0-1 .1-1.3.1v11.5c.2.1.6.1.9.1 2.7 0 4.8-1.8 4.8-6.1 0-3.7-1.8-5.6-4.4-5.6z"/><path d="M142.7 155.5c-2.4-2.5-5-5.3-7.9-8.5-8.2-9-14.1-16.5-18.3-22.9 6.9-18.1 7.5-25.2 7.3-30.8-.6-15.8-10.2-16.6-10.7-16.6h-.1c-.1 0-10.5.1-10.8 13.7-.2 10 .6 19.5 9.9 34.2-2.2 5.7-5.1 12.4-8.7 20.5-3.1 7-6.2 13.5-9.2 19.4-20.7 6.8-28.5 14.7-32.7 19.1-9.3 9.5-5.5 16.3-4.7 17.5.5 1.1 3.1 5.5 8.5 5.5 1.4 0 3-.3 4.8-1.1 7.9-3.4 18.3-20.8 26.9-37.7 5.5-1.7 11.9-3.4 19.3-4.8 9.6-1.9 17.8-2.9 24.8-3.4 15.7 16.6 20.6 19.3 27.1 21 13 3.5 16.5-5.6 16.5-5.6 1.2-2.9 1.7-9.5-5.1-13.7-7.6-4.8-20.6-6.7-36.9-5.8zm-74.3 46.3c-5.6 2.4-7.8-1.7-8.2-2.6l-.2-.4c-.1-.2-3.3-4.8 4.2-12.5 3.7-3.8 10.4-10.6 27.2-16.7-9.5 18.4-17.7 30-23 32.2zm37.8-111.4c.2-9.1 5.7-9.8 6.7-9.8.8.1 6.4 1.4 6.9 12.8.2 4.9-.3 11.2-5.9 26.4-7.3-12.4-8-20.7-7.7-29.4zm9.3 68.6c-6 1.2-11.4 2.5-16.1 3.8 2.9-5.8 5.4-11.4 7.6-16.2 3.1-7 5.7-12.9 7.8-18.1 4.2 6.1 9.8 13 17.2 21.1 2 2.2 3.9 4.3 5.7 6.2-7 .6-14.4 1.7-22.2 3.2zm61.8 5.6c5.5 3.4 3.8 8.3 3.5 8.9 0 .1-2.2 5.8-11.7 3.2-5.1-1.4-8.9-3-22.8-17.4 19.4-.6 28.2 3.6 31 5.3z" fill="#46166b"/><path class="st0" d="M205.6 48.5L161.1.4H45.9C39.9.4 35 5.3 35 11.3v19.8h-4.7c-1 0-1.8.8-1.8 1.8v30c0 1 .8 1.8 1.8 1.8H35v157.9c0 6 4.9 10.9 10.9 10.9h148.9c6 0 10.9-4.9 10.9-10.9v-161l-.1-13.1zm-45.5-36.1l34.2 36.9h-28.9c-2.9 0-5.3-2.4-5.3-5.3V12.4zm35.4 207c0 2.9-2.4 5.3-5.3 5.3H50.3c-2.9 0-5.3-2.4-5.3-5.3V64.8h59.1c1 0 1.8-.8 1.8-1.8V33c0-1-.8-1.8-1.8-1.8H45V14.6c0-2.9 2.4-5.3 5.3-5.3h99.6v38c0 6 4.9 10.9 10.9 10.9h34.6v161.2zM45.1 57.6V39c1.3-.2 3.1-.4 5.6-.4 2.6 0 4.5.4 5.9 1.5 1.3 1 2 2.6 2 4.4 0 2-.7 3.6-1.8 4.7-1.4 1.3-3.6 1.9-5.8 1.9-.4 0-.8 0-1.1-.1v6.5h-4.8zm15.9-.1V39c1.4-.2 3.4-.4 5.4-.4 3.3 0 5.4.6 7.1 1.8 2 1.5 3.1 3.9 3.1 7.4 0 3.8-1.3 6.4-3.1 7.8-1.8 1.5-4.6 2.2-8 2.2-2.1 0-3.6-.2-4.5-.3zm28.9-11.1v3.9H84v7.3h-4.8V38.7h11.1v4H84v3.7h5.9z"/></svg>