<?xml version="1.0" encoding="utf-8"?>
<!-- Generator: Adobe Illustrator 21.1.0, SVG Export Plug-In . SVG Version: 6.00 Build 0)  -->
<svg version="1.1" id="Layer_1" xmlns="http://www.w3.org/2000/svg" xmlns:xlink="http://www.w3.org/1999/xlink" x="0px" y="0px"
	 viewBox="0 0 234 234" style="enable-background:new 0 0 234 234;" xml:space="preserve">
<style type="text/css">
	.st0{fill:#FAA634;}
	.st1{fill:#46166B;}
</style>
<g>
	<path class="st0" d="M51.2,42.3c-0.6,0-1,0.1-1.3,0.1v4.9c0.3,0.1,0.5,0.1,1,0.1c1.9,0,2.9-1.1,2.9-2.7
		C53.8,43.3,53,42.3,51.2,42.3z"/>
	<path class="st0" d="M67.1,42.3c-0.6,0-1,0.1-1.3,0.1v11.5C66,54,66.4,54,66.7,54c2.7,0,4.8-1.8,4.8-6.1
		C71.5,44.2,69.7,42.3,67.1,42.3z"/>
	<g>
		<path class="st1" d="M142.7,155.5c-2.4-2.5-5-5.3-7.9-8.5c-8.2-9-14.1-16.5-18.3-22.9c6.9-18.1,7.5-25.2,7.3-30.8
			c-0.6-15.8-10.2-16.6-10.7-16.6l-0.1,0c0,0,0,0,0,0c-0.1,0-10.5,0.1-10.8,13.7c-0.2,10,0.6,19.5,9.9,34.2
			c-2.2,5.7-5.1,12.4-8.7,20.5c-3.1,7-6.2,13.5-9.2,19.4c-20.7,6.8-28.5,14.7-32.7,19.1c-9.3,9.5-5.5,16.3-4.7,17.5
			c0.5,1.1,3.1,5.5,8.5,5.5c1.4,0,3-0.3,4.8-1.1c7.9-3.4,18.3-20.8,26.9-37.7c5.5-1.7,11.9-3.4,19.3-4.8c9.6-1.9,17.8-2.9,24.8-3.4
			c15.7,16.6,20.6,19.3,27.1,21c13,3.5,16.5-5.6,16.5-5.6c1.2-2.9,1.7-9.5-5.1-13.7C172,156.5,159,154.6,142.7,155.5z M68.4,201.8
			c-5.6,2.4-7.8-1.7-8.2-2.6l-0.2-0.4c-0.1-0.2-3.3-4.8,4.2-12.5c3.7-3.8,10.4-10.6,27.2-16.7C81.9,188,73.7,199.6,68.4,201.8z
			 M106.2,90.4c0.2-9.1,5.7-9.8,6.7-9.8c0.8,0.1,6.4,1.4,6.9,12.8c0.2,4.9-0.3,11.2-5.9,26.4C106.6,107.4,105.9,99.1,106.2,90.4z
			 M115.5,159c-6,1.2-11.4,2.5-16.1,3.8c2.9-5.8,5.4-11.4,7.6-16.2c3.1-7,5.7-12.9,7.8-18.1c4.2,6.1,9.8,13,17.2,21.1
			c2,2.2,3.9,4.3,5.7,6.2C130.7,156.4,123.3,157.5,115.5,159z M177.3,164.6c5.5,3.4,3.8,8.3,3.5,8.9c0,0.1-2.2,5.8-11.7,3.2
			c-5.1-1.4-8.9-3-22.8-17.4C165.7,158.7,174.5,162.9,177.3,164.6z"/>
		<path class="st0" d="M205.6,48.5L161.1,0.4l-115.2,0c-6,0-10.9,4.9-10.9,10.9v19.8h-4.7c-1,0-1.8,0.8-1.8,1.8v30
			c0,1,0.8,1.8,1.8,1.8h4.7v157.9c0,6,4.9,10.9,10.9,10.9h148.9c6,0,10.9-4.9,10.9-10.9v-161l0,0L205.6,48.5z M160.1,12.4l34.2,36.9
			h-28.9c-2.9,0-5.3-2.4-5.3-5.3V12.4z M195.5,219.4c0,2.9-2.4,5.3-5.3,5.3H50.3c-2.9,0-5.3-2.4-5.3-5.3V64.8h59.1
			c1,0,1.8-0.8,1.8-1.8v-30c0-1-0.8-1.8-1.8-1.8H45V14.6c0-2.9,2.4-5.3,5.3-5.3h99.6v38c0,6,4.9,10.9,10.9,10.9h34.6V219.4z
			 M45.1,57.6V39c1.3-0.2,3.1-0.4,5.6-0.4c2.6,0,4.5,0.4,5.9,1.5c1.3,1,2,2.6,2,4.4c0,2-0.7,3.6-1.8,4.7c-1.4,1.3-3.6,1.9-5.8,1.9
			c-0.4,0-0.8,0-1.1-0.1v6.5H45.1z M61,57.5V39c1.4-0.2,3.4-0.4,5.4-0.4c3.3,0,5.4,0.6,7.1,1.8c2,1.5,3.1,3.9,3.1,7.4
			c0,3.8-1.3,6.4-3.1,7.8c-1.8,1.5-4.6,2.2-8,2.2C63.4,57.8,61.9,57.6,61,57.5z M89.9,46.4v3.9H84v7.3h-4.8V38.7h11.1v4H84v3.7H89.9
			z"/>
	</g>
</g>
</svg>
