<svg id="Layer_1" xmlns="http://www.w3.org/2000/svg" viewBox="0 0 234 234"><style>.st0{fill:#faa634}.st1{fill:#46166b}</style><path class="st0" d="M117 .4C60.8.4 15.3 45.9 15.3 102.1c0 44.2 28.2 81.7 67.5 95.8-1.6-10.9-2-19-2-19 0-.2 0-.4-.1-.6-28.4-13.6-48.1-42.6-48.1-76.2 0-46.6 37.8-84.4 84.4-84.4 46.6 0 84.4 37.8 84.4 84.4 0 33.3-19.3 62-47.2 75.8 0 .3-.1.7-.1 1 0 0-.4 8-2 18.7 38.9-14.3 66.6-51.6 66.6-95.5C218.7 45.9 173.2.4 117 .4z"/><circle class="st1" cx="117" cy="97.6" r="28.9"/><path class="st0" d="M148.9 141.5c2.2 4.3 3.9 9.7 4.9 16.5 18.2-12 30.2-32.6 30.2-56 0-37-30-67-67-67s-67 30-67 67c0 23.4 12 43.9 30.1 55.9 1-6.8 2.7-12.2 4.9-16.5-11.4-9.3-18.8-23.5-18.8-39.4 0-28 22.7-50.8 50.8-50.8 28 0 50.8 22.7 50.8 50.8 0 15.9-7.4 30.2-18.9 39.5z"/><path class="st1" d="M122.3 135.1h-10.5c-8.9.3-26.4 5.7-21.8 45.5 0 0 2 52.3 21.6 53h8.4c20 .2 24.1-53 24.1-53 4.5-39.7-12.8-45.2-21.8-45.5z"/></svg>