<?xml version="1.0" encoding="utf-8"?>
<!-- Generator: Adobe Illustrator 21.1.0, SVG Export Plug-In . SVG Version: 6.00 Build 0)  -->
<svg version="1.1" id="Layer_1" xmlns="http://www.w3.org/2000/svg" xmlns:xlink="http://www.w3.org/1999/xlink" x="0px" y="0px"
	 viewBox="0 0 234 234" style="enable-background:new 0 0 234 234;" xml:space="preserve">
<style type="text/css">
	.st0{fill:#FAA634;}
	.st1{fill:#46166B;}
</style>
<g>
	<path class="st0" d="M117,0.4C60.8,0.4,15.3,45.9,15.3,102.1c0,44.2,28.2,81.7,67.5,95.8c-1.6-10.9-2-19-2-19c0-0.2,0-0.4-0.1-0.6
		c-28.4-13.6-48.1-42.6-48.1-76.2c0-46.6,37.8-84.4,84.4-84.4c46.6,0,84.4,37.8,84.4,84.4c0,33.3-19.3,62-47.2,75.8
		c0,0.3-0.1,0.7-0.1,1c0,0-0.4,8-2,18.7c38.9-14.3,66.6-51.6,66.6-95.5C218.7,45.9,173.2,0.4,117,0.4z"/>
	<circle class="st1" cx="117" cy="97.6" r="28.9"/>
	<path class="st0" d="M148.9,141.5c2.2,4.3,3.9,9.7,4.9,16.5c18.2-12,30.2-32.6,30.2-56c0-37-30-67-67-67c-37,0-67,30-67,67
		c0,23.4,12,43.9,30.1,55.9c1-6.8,2.7-12.2,4.9-16.5c-11.4-9.3-18.8-23.5-18.8-39.4c0-28,22.7-50.8,50.8-50.8
		c28,0,50.8,22.7,50.8,50.8C167.8,117.9,160.4,132.2,148.9,141.5z"/>
	<path class="st1" d="M122.3,135.1L122.3,135.1l-10.5,0v0c-8.9,0.3-26.4,5.7-21.8,45.5c0,0,2,52.3,21.6,53v0h8.4v0
		c20,0.2,24.1-53,24.1-53C148.6,140.9,131.3,135.4,122.3,135.1z"/>
</g>
</svg>
