<?xml version="1.0" encoding="utf-8"?>
<!-- Generator: Adobe Illustrator 16.0.0, SVG Export Plug-In . SVG Version: 6.00 Build 0)  -->
<!DOCTYPE svg PUBLIC "-//W3C//DTD SVG 1.1//EN" "http://www.w3.org/Graphics/SVG/1.1/DTD/svg11.dtd">
<svg version="1.1" id="Layer_1" xmlns="http://www.w3.org/2000/svg" xmlns:xlink="http://www.w3.org/1999/xlink" x="0px" y="0px"
	 width="24px" height="26px" viewBox="0 0 24 26" enable-background="new 0 0 24 26" xml:space="preserve">
<g>
	<defs>
		<rect id="SVGID_1_" width="24" height="26"/>
	</defs>
	<clipPath id="SVGID_2_">
		<use xlink:href="#SVGID_1_"  overflow="visible"/>
	</clipPath>
	<path clip-path="url(#SVGID_2_)" fill="#02AAEC" d="M23.764,24.354l-6.657-7.882c1.423-1.745,2.284-3.994,2.284-6.449
		C19.391,4.497,15.041,0,9.695,0C4.349,0,0,4.497,0,10.023c0,5.527,4.349,10.023,9.695,10.023c2.261,0,4.338-0.812,5.989-2.157
		l6.553,7.756C22.434,25.88,22.716,26,23,26c0.229,0,0.458-0.077,0.646-0.235C24.067,25.407,24.12,24.776,23.764,24.354 M2,10.023
		C2,5.6,5.452,2,9.695,2c4.244,0,7.696,3.599,7.696,8.023s-3.452,8.023-7.696,8.023C5.452,18.047,2,14.447,2,10.023"/>
</g>
</svg>
