<?xml version="1.0" encoding="utf-8"?>
<!-- Generator: Adobe Illustrator 21.0.0, SVG Export Plug-In . SVG Version: 6.00 Build 0)  -->
<svg version="1.1" id="Layer_1" xmlns="http://www.w3.org/2000/svg" xmlns:xlink="http://www.w3.org/1999/xlink" x="0px" y="0px"
	 viewBox="0 0 24 26" style="enable-background:new 0 0 24 26;" xml:space="preserve">
<style type="text/css">
	.st0{fill:#02AAEC;}
</style>
<path class="st0" d="M23.8,24.4l-6.7-7.9c1.4-1.7,2.3-4,2.3-6.4c0-5.5-4.4-10-9.7-10S0,4.5,0,10c0,5.5,4.3,10,9.7,10
	c2.3,0,4.3-0.8,6-2.2l6.6,7.8c0.2,0.2,0.5,0.4,0.8,0.4c0.2,0,0.5-0.1,0.6-0.2C24.1,25.4,24.1,24.8,23.8,24.4 M2,10
	c0-4.4,3.5-8,7.7-8c4.2,0,7.7,3.6,7.7,8s-3.5,8-7.7,8C5.5,18,2,14.4,2,10"/>
</svg>
