<svg data-name="Layer 1" xmlns="http://www.w3.org/2000/svg" viewBox="0 0 44 44"><path d="M22 0a22 22 0 1 0 22 22A22 22 0 0 0 22 0zm10.2 16.77v.68a15 15 0 0 1-23 12.61 10.71 10.71 0 0 0 1.26.07A10.56 10.56 0 0 0 17 27.88a5.27 5.27 0 0 1-4.92-3.65 5.28 5.28 0 0 0 2.38-.09A5.26 5.26 0 0 1 10.21 19v-.09a5.24 5.24 0 0 0 2.38.66 5.27 5.27 0 0 1-1.63-7A14.94 14.94 0 0 0 21.81 18a5.26 5.26 0 0 1 9-4.8 10.53 10.53 0 0 0 3.3-1.2 5.28 5.28 0 0 1-2.31 2.91 10.52 10.52 0 0 0 3-.83 10.69 10.69 0 0 1-2.6 2.69z"/></svg>