<svg id="Layer_1" data-name="Layer 1" xmlns="http://www.w3.org/2000/svg" viewBox="0 0 44 44"><title>AMA_icons_v01_0520</title><path d="M22,0A22,22,0,1,0,44,22,22,22,0,0,0,22,0ZM32.2,16.77q0,0.34,0,.68a15,15,0,0,1-23,12.61,10.71,10.71,0,0,0,1.26.07A10.56,10.56,0,0,0,17,27.88a5.27,5.27,0,0,1-4.92-3.65,5.28,5.28,0,0,0,2.38-.09A5.26,5.26,0,0,1,10.21,19V18.91a5.24,5.24,0,0,0,2.38.66,5.27,5.27,0,0,1-1.63-7A14.94,14.94,0,0,0,21.81,18a5.26,5.26,0,0,1,9-4.8A10.53,10.53,0,0,0,34.11,12a5.28,5.28,0,0,1-2.31,2.91,10.52,10.52,0,0,0,3-.83A10.69,10.69,0,0,1,32.2,16.77Z"/></svg>