<svg xmlns="http://www.w3.org/2000/svg" viewBox="0 0 234 234"><path d="M202.4 48.5L157.8.4H42.6c-6 0-10.9 4.9-10.9 10.9v211.3c0 6 4.9 10.9 10.9 10.9h148.9c6 0 10.9-4.9 10.9-10.9V48.5zm-45.6-36.1L191 49.3h-28.9c-2.9 0-5.3-2.4-5.3-5.3V12.4zm35.4 207c0 2.9-2.4 5.3-5.3 5.3H47.1c-2.9 0-5.3-2.4-5.3-5.3V14.6c0-2.9 2.4-5.3 5.3-5.3h99.6v38c0 6 4.9 10.9 10.9 10.9h34.6v161.2z" fill="#faa634"/><path d="M142.9 107.7c0-10.8-8.8-19.6-19.6-19.6H75.6c-10.8 0-19.6 8.8-19.6 19.6v47.8c0 10.8 8.8 19.6 19.6 19.6h47.7c10.8 0 19.6-8.8 19.6-19.6v-11.6l27 27.3c.8.9 2 1.4 3.4 1.4 2.5 0 4.5-2 4.7-4.4v-.2-.1-72.5-.1c0-2.6-2.1-4.7-4.7-4.7-1.5 0-2.9.7-3.7 1.9L143 118.9v-11.2z" fill="#46166b"/></svg>