<?xml version="1.0" encoding="utf-8"?>
<!-- Generator: Adobe Illustrator 21.1.0, SVG Export Plug-In . SVG Version: 6.00 Build 0)  -->
<svg version="1.1" id="Layer_1" xmlns="http://www.w3.org/2000/svg" xmlns:xlink="http://www.w3.org/1999/xlink" x="0px" y="0px"
	 viewBox="0 0 234 234" style="enable-background:new 0 0 234 234;" xml:space="preserve">
<style type="text/css">
	.st0{fill:#FAA634;}
	.st1{fill:#46166B;}
</style>
<g>
	<path class="st0" d="M202.4,48.5L157.8,0.4l-115.2,0c-6,0-10.9,4.9-10.9,10.9v211.3c0,6,4.9,10.9,10.9,10.9h148.9
		c6,0,10.9-4.9,10.9-10.9v-161l0,0L202.4,48.5z M156.8,12.4L191,49.3h-28.9c-2.9,0-5.3-2.4-5.3-5.3V12.4z M192.2,219.4
		c0,2.9-2.4,5.3-5.3,5.3H47.1c-2.9,0-5.3-2.4-5.3-5.3V14.6c0-2.9,2.4-5.3,5.3-5.3h99.6v38c0,6,4.9,10.9,10.9,10.9h34.6V219.4z"/>
	<path class="st1" d="M142.9,107.7c0-10.8-8.8-19.6-19.6-19.6H75.6c-10.8,0-19.6,8.8-19.6,19.6v47.8c0,10.8,8.8,19.6,19.6,19.6h47.7
		c10.8,0,19.6-8.8,19.6-19.6v-11.6l27,27.3v0c0.8,0.9,2,1.4,3.4,1.4c2.5,0,4.5-2,4.7-4.4h0V168c0,0,0,0,0-0.1s0,0,0-0.1V95.4h0
		c0,0,0-0.1,0-0.1c0-2.6-2.1-4.7-4.7-4.7c-1.5,0-2.9,0.7-3.7,1.9l-26.6,26.4V107.7z"/>
</g>
</svg>
