<?xml version="1.0" encoding="utf-8"?>
<!-- Generator: Adobe Illustrator 16.0.0, SVG Export Plug-In . SVG Version: 6.00 Build 0)  -->
<!DOCTYPE svg PUBLIC "-//W3C//DTD SVG 1.1//EN" "http://www.w3.org/Graphics/SVG/1.1/DTD/svg11.dtd">
<svg version="1.1" id="Layer_1" xmlns="http://www.w3.org/2000/svg" xmlns:xlink="http://www.w3.org/1999/xlink" x="0px" y="0px"
	 width="29.999px" height="30px" viewBox="0 0 29.999 30" enable-background="new 0 0 29.999 30" xml:space="preserve">
<g>
	<defs>
		<rect id="SVGID_1_" width="29.999" height="30"/>
	</defs>
	<clipPath id="SVGID_2_">
		<use xlink:href="#SVGID_1_"  overflow="visible"/>
	</clipPath>
	<path clip-path="url(#SVGID_2_)" fill="#02AAEC" d="M14.999,0C6.728,0,0,6.729,0,15c0,8.271,6.728,15,14.999,15
		c8.271,0,15-6.729,15-15C29.999,6.729,23.27,0,14.999,0 M14.999,28C7.832,28,2,22.168,2,15S7.832,2,14.999,2
		c7.168,0,13,5.832,13,13S22.167,28,14.999,28"/>
	<path clip-path="url(#SVGID_2_)" fill="#02AAEC" d="M21,14H9c-0.552,0-1,0.447-1,1c0,0.553,0.448,1,1,1h12c0.552,0,1-0.447,1-1
		C22,14.447,21.552,14,21,14"/>
</g>
</svg>
