<svg xmlns="http://www.w3.org/2000/svg" xmlns:xlink="http://www.w3.org/1999/xlink" width="29.999" height="30"><defs><path id="a" d="M0 0h29.999v30H0z"/></defs><clipPath id="b"><use xlink:href="#a" overflow="visible"/></clipPath><path clip-path="url(#b)" fill="#02AAEC" d="M14.999 0C6.728 0 0 6.729 0 15s6.728 15 14.999 15 15-6.729 15-15-6.729-15-15-15m0 28C7.832 28 2 22.168 2 15S7.832 2 14.999 2c7.168 0 13 5.832 13 13s-5.832 13-13 13"/><path clip-path="url(#b)" fill="#02AAEC" d="M21 14h-5V9a1 1 0 1 0-2 0v5H9a1 1 0 1 0 0 2h5v5a1 1 0 1 0 2 0v-5h5a1 1 0 1 0 0-2"/></svg>