<svg data-name="Layer 1" xmlns="http://www.w3.org/2000/svg" viewBox="0 0 44 44"><path d="M22 0a22 22 0 1 0 22 22A22 22 0 0 0 22 0zm12.34 22.93a37.4 37.4 0 0 1-.25 4 5.34 5.34 0 0 1-1 2.45 3.53 3.53 0 0 1-2.47 1c-3.46.25-8.64.26-8.64.26s-6.42-.06-8.4-.25a4.19 4.19 0 0 1-2.72-1.06 5.34 5.34 0 0 1-1-2.45 37.35 37.35 0 0 1-.25-4v-1.82a37.35 37.35 0 0 1 .25-4 5.34 5.34 0 0 1 1-2.45 3.53 3.53 0 0 1 2.47-1c3.46-.25 8.64-.25 8.64-.25s5.18 0 8.64.25a3.53 3.53 0 0 1 2.47 1 5.34 5.34 0 0 1 1 2.45 37.4 37.4 0 0 1 .25 4v1.87z"/><path d="M19.45 25.48l6.67-3.45-6.67-3.48v6.93z"/></svg>